<svg xmlns="http://www.w3.org/2000/svg" viewBox="0 0 1200 1200" width="1200" height="1200">
	<g id="Currency Symbol">
		<path id="D " fill="#ffffff" d="M451.05 547.3L588.19 871.82L621.95 871.82L758.39 547.3Q779.49 494.62 797.07 460.9Q813.95 427.89 830.13 408.22Q846.31 388.55 863.89 380.82Q881.47 373.1 903.98 370.99L903.98 342.89L682.44 342.89L682.44 371.69L706.35 371.69Q731.67 371.69 744.33 378.72Q756.99 386.44 756.99 404.71Q749.25 435.61 736.59 474.25Q723.93 513.58 707.75 555.73L621.95 497.43L543.18 556.43Q527 514.99 517.16 488.3Q507.31 462.31 502.39 445.45Q496.76 429.29 495.36 420.16Q493.25 411.03 493.25 404.71Q493.25 385.74 505.91 378.72Q518.56 371.69 545.29 371.69L569.2 371.69L569.2 342.89L306.87 342.89L306.87 370.99Q330.78 372.39 349.07 382.93Q367.35 393.47 383.53 414.54Q399.71 435.61 415.88 467.92Q432.06 500.94 451.05 547.3ZM623.36 756.62Q600.85 701.83 583.97 658.99Q567.09 616.84 553.73 583.12L621.95 529.04L697.91 581.72Q678.92 631.59 659.23 677.25Q639.53 722.91 623.36 756.62Z" />
		<path id="D  copy 2" fill="#ffffff" d="M759.95 666.7L622.81 342.18L589.05 342.18L452.61 666.7Q431.51 719.38 413.93 753.1Q397.05 786.11 380.87 805.78Q364.69 825.45 347.11 833.18Q329.53 840.9 307.02 843.01L307.02 871.11L528.56 871.11L528.56 842.31L504.65 842.31Q479.33 842.31 466.67 835.28Q454.01 827.56 454.01 809.29Q461.75 778.39 474.41 739.75Q487.07 700.42 503.25 658.27L589.05 716.57L667.82 657.57Q684 699.01 693.84 725.7Q703.69 751.69 708.61 768.55Q714.24 784.71 715.64 793.84Q717.75 802.97 717.75 809.29Q717.75 828.26 705.09 835.28Q692.44 842.31 665.71 842.31L641.8 842.31L641.8 871.11L904.13 871.11L904.13 843.01Q880.22 841.61 861.93 831.07Q843.65 820.53 827.47 799.46Q811.29 778.39 795.12 746.08Q778.94 713.06 759.95 666.7ZM587.64 457.38Q610.15 512.17 627.03 555.01Q643.91 597.16 657.27 630.88L589.05 684.96L513.09 632.28Q532.08 582.41 551.77 536.75Q571.47 491.09 587.64 457.38Z" />
	</g>
	<g id="Currency Symbol" style="mix-blend-mode: exclusion">
		<path id="D " fill="#ffffff" d="M451.75 545.84L589.08 871.22L622.89 871.22L759.52 545.84Q780.65 493.02 798.26 459.21Q815.16 426.11 831.36 406.39Q847.56 386.67 865.17 378.92Q882.78 371.17 905.31 369.06L905.31 340.89L683.46 340.89L683.46 369.76L707.41 369.76Q732.76 369.76 745.44 376.81Q758.12 384.55 758.12 402.87Q750.37 433.85 737.69 472.59Q725.01 512.03 708.81 554.29L622.89 495.83L544.01 554.99Q527.81 513.44 517.95 486.68Q508.09 460.62 503.16 443.71Q497.52 427.52 496.12 418.36Q494 409.2 494 402.87Q494 383.85 506.68 376.81Q519.36 369.76 546.12 369.76L570.07 369.76L570.07 340.89L307.36 340.89L307.36 369.06Q331.31 370.47 349.62 381.03Q367.93 391.6 384.13 412.73Q400.33 433.85 416.53 466.25Q432.73 499.35 451.75 545.84ZM624.3 755.72Q601.76 700.78 584.86 657.82Q567.95 615.56 554.57 581.76L622.89 527.53L698.95 580.35Q679.94 630.35 660.22 676.13Q640.5 721.91 624.3 755.72Z" />
		<path id="D  copy 3" fill="#ffffff" d="M761.25 667.16L623.92 341.78L590.11 341.78L453.48 667.16Q432.35 719.98 414.74 753.79Q397.84 786.89 381.64 806.61Q365.44 826.33 347.83 834.08Q330.22 841.83 307.69 843.94L307.69 872.11L529.54 872.11L529.54 843.24L505.59 843.24Q480.24 843.24 467.56 836.19Q454.88 828.45 454.88 810.13Q462.63 779.15 475.31 740.41Q487.99 700.97 504.19 658.71L590.11 717.17L668.99 658.01Q685.19 699.56 695.05 726.32Q704.91 752.38 709.84 769.29Q715.48 785.48 716.88 794.64Q719 803.8 719 810.13Q719 829.15 706.32 836.19Q693.64 843.24 666.88 843.24L642.93 843.24L642.93 872.11L905.64 872.11L905.64 843.94Q881.69 842.53 863.38 831.97Q845.07 821.4 828.87 800.27Q812.67 779.15 796.47 746.75Q780.27 713.65 761.25 667.16ZM588.7 457.28Q611.24 512.22 628.14 555.18Q645.05 597.44 658.43 631.24L590.11 685.47L514.05 632.65Q533.06 582.65 552.78 536.87Q572.5 491.09 588.7 457.28Z" />
	</g>
</svg>